<?xml version="1.0" encoding="utf-8"?>
<!-- Generator: Adobe Illustrator 25.2.1, SVG Export Plug-In . SVG Version: 6.00 Build 0)  -->
<svg version="1.1" id="레이어_1" xmlns="http://www.w3.org/2000/svg" xmlns:xlink="http://www.w3.org/1999/xlink" x="0px"
	 y="0px" viewBox="0 0 283.46 226.77" style="enable-background:new 0 0 283.46 226.77;" xml:space="preserve">
<style type="text/css">
	.st0{fill:#1C110A;stroke:#000000;stroke-width:2;stroke-miterlimit:10;}
	.st1{fill:#F0D0CC;stroke:#000000;stroke-width:2;stroke-linecap:round;stroke-linejoin:round;stroke-miterlimit:10;}
	.st2{fill:#F0D0CC;stroke:#000000;stroke-width:2;stroke-miterlimit:10;}
	.st3{fill:none;stroke:#000000;stroke-width:2;stroke-linecap:round;stroke-linejoin:round;stroke-miterlimit:10;}
	.st4{fill:#1B1009;stroke:#000000;stroke-width:2;stroke-miterlimit:10;}
	.st5{fill:#FFFFFF;stroke:#000000;stroke-width:2;stroke-miterlimit:10;}
	.st6{fill:none;stroke:#050505;stroke-width:2;stroke-linecap:round;stroke-miterlimit:10;}
	.st7{fill:#D79185;}
	.st8{fill:none;stroke:#000000;stroke-width:2;stroke-linecap:round;stroke-miterlimit:10;}
	.st9{fill:#E7A8A8;}
	.st10{fill:#FFFFFF;stroke:#000000;stroke-width:2;stroke-linecap:round;stroke-linejoin:round;stroke-miterlimit:10;}
	.st11{fill:none;stroke:#000000;stroke-miterlimit:10;}
	.st12{fill:none;stroke:#000000;stroke-width:2;stroke-miterlimit:10;}
	.st13{fill:#0F1628;stroke:#000000;stroke-width:2;stroke-linecap:round;stroke-linejoin:round;stroke-miterlimit:10;}
</style>
<g>
	<path class="st0" d="M122.06,120.36c0,0-18.86,13.65-15,27.41l15.6,3.28l4.66-21.73L122.06,120.36z"/>
	<g>
		<path class="st1" d="M166.82,153.13l-4.39-0.11l-2.04-36.85l-40.44,1.3c0,0,4.48,11.08-1.22,34.48l-1.4,7.12l3.31,65.67
			l46.18,0.81V153.13z"/>
	</g>
	<path d="M151.61,212.15h-19.07c-6.6,0-12-5.4-12-12v-11.97c0-6.6,5.4-12,12-12h19.07c6.6,0,12,5.4,12,12v11.97
		C163.61,206.75,158.21,212.15,151.61,212.15z"/>
	<path d="M121.29,119.55v8.49c0,0,26.82,5.62,34.73-6.69S121.29,119.55,121.29,119.55z"/>
	<path class="st2" d="M109.53,71.59c0,0-8.16,31.34,12.53,47.76c16.42,13.04,28.63,10.04,39.93-3.69
		c11.93-14.5,13.05-38.12,7.83-48.2c-5.22-10.08-18.21-22.42-29.59-21.66C128.84,46.55,114.75,54.57,109.53,71.59z"/>
	<path class="st3" d="M149.98,69.82c0,0,6.92-1.66,13.63,1.4"/>
	<path class="st3" d="M117,71.52c0,0,5.18-3.36,11.32-1.61"/>
	<path class="st0" d="M150.68,53.91c0,0-6.19-4.61-11.57,0c0,0-15.04,18.39-29.77,23.03c0,0-2.45,22.93,5.19,34.02
		c0,0-22.96-24.19-11.82-59.62c7.34-21.65,41.11-34.84,52.27-8.91C154.97,42.44,154.05,52.63,150.68,53.91z"/>
	<path class="st4" d="M150.68,52.93c0,0,7.86,16.42,21.71,23.88c0,0-0.23,22.08-4.35,29.58c0,0,18.64-30.58,8.56-54.15
		c0,0-9.77-26.47-32.77-22.63C143.81,29.62,154.32,47.04,150.68,52.93z"/>
	<path class="st5" d="M120.1,144.67c0,0,20.04,18.46,43.05,0l31.45,30.74l-4.56,49.89l-100.09-1.71v-52.28L120.1,144.67z"/>
	<g>
		<path class="st2" d="M108.95,76.94c0,0-17.03,5.55,0,19.64V76.94z"/>
		<path class="st3" d="M105.16,83.6c1.42-2.09,3.79-0.77,3.79-0.77s-3.86,2.42-2.57,5.51"/>
	</g>
	<g>
		<path class="st2" d="M172.8,75.56c0,0,17.03,5.55,0,19.64V75.56z"/>
		<path class="st3" d="M176.59,82.22c-1.42-2.09-3.79-0.77-3.79-0.77s3.86,2.42,2.57,5.51"/>
	</g>
	<ellipse cx="156.62" cy="84.39" rx="3.74" ry="5.1"/>
	<ellipse cx="124.27" cy="84.39" rx="3.74" ry="5.1"/>
	<path class="st6" d="M139.87,83.47v4.63c0,0-3.85,2.94-3.35,5.59c0.49,2.65,2.97,3.82,5.2,2.06"/>
	<path class="st7" d="M133.37,108h13.95C147.32,108,140.24,103.37,133.37,108z"/>
	<path class="st7" d="M131.64,109.34c0,0,2.5,4.41,8.86,4.29c6.36-0.11,8.2-4.52,8.2-4.52l-17.33-0.32L131.64,109.34z"/>
	<polyline class="st8" points="129.12,107.2 131.68,108.79 149.42,108.79 152.88,107.2 	"/>
	<path class="st8" d="M135.49,112.56c0,0,5.85,3,10.59-0.52"/>
	<circle class="st9" cx="159.9" cy="98.7" r="9.21"/>
	<circle class="st9" cx="120.54" cy="98.7" r="9.21"/>
	<path class="st3" d="M116,190.04"/>
	<path class="st3" d="M111.53,152.9"/>
	<path class="st3" d="M108.95,164.68c0,0-4.27,25.36,8.69,31.43"/>
	<path class="st3" d="M176.52,159.73c0,0,3.18,19.45-9.1,32.9"/>
	<path class="st10" d="M142.27,199.97"/>
	<path class="st10" d="M198.53,219.06"/>
	<path class="st10" d="M200.24,176.18"/>
	<path class="st10" d="M83.75,176.18"/>
	<path class="st11" d="M128.32,81.22c0,0-2.67-6.48-10.45,0.9"/>
	<path class="st11" d="M152.55,81.22c0,0,2.67-6.48,10.45,0.9"/>
	<path class="st12" d="M146.67,55.32c0,0-3.63-3.49-8.79-0.59"/>
	<path class="st12" d="M105.16,76.94c0,0,14.39-10.05,17.5-18.25"/>
	<path class="st12" d="M163,58.69c0,0,3.23,11.97,11.7,17.68"/>
	<path class="st12" d="M123.17,120.36l-16.9,12.47c0,0-11.36,6.57-3.79,19.22"/>
	<path class="st13" d="M83.75,192.63l6.54,32.67h45.45c-12.83-22.33-36-64.91-31.89-74.25l-33.82,13.57c0,0-5.75,0.07-10.76,26.37
		c0,0-1.62,17.67-0.33,34.31h31.35L83.75,192.63z"/>
	<path class="st13" d="M199.71,192.63l-6.54,32.67h31.35c1.3-23.81-0.33-34.31-0.33-34.31c0.83-23.83-10.76-26.37-10.76-26.37
		l-33.82-13.57c4.11,9.34-19.06,51.92-31.89,74.25h45.45L199.71,192.63z"/>
	<path class="st13" d="M120.54,146.43l-0.31-6.71c0,0-21.03,5.86-19.49,26.15h-7.69c0,0,16.72,34.29,35.97,59.43h6.67
		C124.84,199.38,106.1,150.48,120.54,146.43z"/>
	<path class="st13" d="M182.73,165.87c1.54-20.3-21.17-28.41-21.17-28.41l0.4,7.2c14.44,4.05-3.34,54.71-14.19,80.63h6.67
		c19.25-25.14,35.97-59.43,35.97-59.43H182.73z"/>
</g>
</svg>
